<svg xmlns="http://www.w3.org/2000/svg" viewBox="0 0 1920 1080">
  <defs>
    <!-- Chalkboard background gradient -->
    <linearGradient id="chalkboard-bg" x1="0%" y1="0%" x2="100%" y2="100%">
      <stop offset="0%" style="stop-color:#1a1a2e"/>
      <stop offset="50%" style="stop-color:#16213e"/>
      <stop offset="100%" style="stop-color:#0f3460"/>
    </linearGradient>

    <!-- Chalk texture filter -->
    <filter id="chalk-texture">
      <feTurbulence type="fractalNoise" baseFrequency="0.9" numOctaves="4" result="noise"/>
      <feColorMatrix type="matrix" values="1 0 0 0 0  0 1 0 0 0  0 0 1 0 0  0 0 0 0.15 0"/>
      <feComposite operator="in" in2="SourceGraphic"/>
      <feBlend mode="multiply" in="SourceGraphic" result="textured"/>
    </filter>

    <!-- Chalk stroke filter for hand-drawn effect -->
    <filter id="chalk-stroke">
      <feTurbulence type="fractalNoise" baseFrequency="0.05" numOctaves="2" result="turbulence"/>
      <feDisplacementMap in="SourceGraphic" in2="turbulence" scale="3" xChannelSelector="R" yChannelSelector="G"/>
    </filter>

    <!-- Glow effect for chalk -->
    <filter id="chalk-glow">
      <feGaussianBlur stdDeviation="2" result="coloredBlur"/>
      <feMerge>
        <feMergeNode in="coloredBlur"/>
        <feMergeNode in="SourceGraphic"/>
      </feMerge>
    </filter>

    <!-- Wood frame gradient -->
    <linearGradient id="wood-frame" x1="0%" y1="0%" x2="0%" y2="100%">
      <stop offset="0%" style="stop-color:#5d4037"/>
      <stop offset="20%" style="stop-color:#6d4c41"/>
      <stop offset="50%" style="stop-color:#4e342e"/>
      <stop offset="80%" style="stop-color:#6d4c41"/>
      <stop offset="100%" style="stop-color:#5d4037"/>
    </linearGradient>

    <!-- Erasure mark pattern -->
    <pattern id="erasure-marks" x="0" y="0" width="100" height="100" patternUnits="userSpaceOnUse">
      <ellipse cx="20" cy="30" rx="15" ry="8" fill="#1e2a4a" opacity="0.3"/>
      <ellipse cx="70" cy="60" rx="20" ry="10" fill="#1e2a4a" opacity="0.2"/>
      <ellipse cx="40" cy="80" rx="12" ry="6" fill="#1e2a4a" opacity="0.25"/>
    </pattern>
  </defs>

  <!-- Wood frame border -->
  <rect x="0" y="0" width="1920" height="1080" fill="url(#wood-frame)"/>
  <rect x="15" y="15" width="1890" height="1050" fill="url(#chalkboard-bg)"/>

  <!-- Chalk dust texture overlay -->
  <rect x="15" y="15" width="1890" height="1050" fill="#ffffff" opacity="0.03" filter="url(#chalk-texture)"/>

  <!-- Erasure marks -->
  <rect x="15" y="15" width="1890" height="1050" fill="url(#erasure-marks)" opacity="0.5"/>

  <!-- Decorative chalk lines (hand-drawn style) -->
  <g stroke="#4fc3f7" stroke-width="2" fill="none" opacity="0.15">
    <!-- Horizontal lines -->
    <path d="M 50 180 Q 480 178 950 182 Q 1420 178 1870 180"/>
    <path d="M 50 900 Q 480 902 950 898 Q 1420 903 1870 900"/>
    <!-- Vertical lines -->
    <path d="M 200 50 Q 198 540 202 1030"/>
    <path d="M 1720 50 Q 1722 540 1718 1030"/>
  </g>

  <!-- Main title area -->
  <g transform="translate(960, 280)">
    <!-- Title underline with chalk effect -->
    <path d="M -420 70 Q -210 73 0 68 Q 210 74 420 70" stroke="#e8eaf6" stroke-width="3" fill="none" opacity="0.6" filter="url(#chalk-glow)"/>

    <!-- Main title -->
    <text x="0" y="0" text-anchor="middle" font-family="Arial, sans-serif" font-size="80" font-weight="bold" fill="#e8eaf6" filter="url(#chalk-glow)">AI 实践：搭建自动化博客</text>

    <!-- Subtitle -->
    <text x="0" y="80" text-anchor="middle" font-family="Consolas, monospace" font-size="36" fill="#81d4fa" opacity="0.9">From Manual to AI-Automated</text>
  </g>

  <!-- Central icon area - Robot/AI symbol -->
  <g transform="translate(960, 540)">
    <!-- Gear icon background -->
    <circle cx="0" cy="0" r="140" fill="none" stroke="#4fc3f7" stroke-width="2" opacity="0.2"/>
    <circle cx="0" cy="0" r="110" fill="none" stroke="#4fc3f7" stroke-width="1.5" opacity="0.15"/>

    <!-- Robot/AI head icon -->
    <g filter="url(#chalk-glow)" opacity="0.85">
      <!-- Head shape -->
      <rect x="-50" y="-55" width="100" height="80" rx="15" fill="none" stroke="#e8eaf6" stroke-width="3"/>
      <!-- Antenna -->
      <line x1="0" y1="-55" x2="0" y2="-85" stroke="#e8eaf6" stroke-width="2"/>
      <circle cx="0" cy="-90" r="8" fill="#4fc3f7"/>
      <!-- Eyes -->
      <circle cx="-20" cy="-20" r="10" fill="#4fc3f7"/>
      <circle cx="20" cy="-20" r="10" fill="#4fc3f7"/>
      <!-- Mouth -->
      <path d="M -20 20 Q 0 30 20 20" stroke="#e8eaf6" stroke-width="2" fill="none"/>
      <!-- AI sparkles -->
      <path d="M -80 -70 L -70 -70 L -70 -80 L -70 -70 L -60 -70 L -70 -60 L -70 -50 L -70 -60 L -80 -60 Z" fill="#81d4fa" opacity="0.7"/>
      <path d="M 60 -80 L 70 -80 L 70 -90 L 70 -80 L 80 -80 L 70 -70 L 70 -60 L 70 -70 L 60 -70 Z" fill="#81d4fa" opacity="0.7"/>
    </g>

    <!-- Orbiting elements -->
    <g opacity="0.4">
      <circle cx="100" cy="-50" r="8" fill="#81d4fa"/>
      <circle cx="-90" cy="60" r="6" fill="#81d4fa"/>
      <circle cx="70" cy="80" r="5" fill="#81d4fa"/>
    </g>
  </g>

  <!-- Workflow diagram - left side -->
  <g transform="translate(250, 750)">
    <!-- Manual input box -->
    <rect x="0" y="0" width="180" height="80" rx="8" fill="none" stroke="#e8eaf6" stroke-width="2" opacity="0.7" />
    <text x="90" y="35" text-anchor="middle" font-family="Arial" font-size="18" fill="#e8eaf6" font-weight="bold">Manual</text>
    <text x="90" y="60" text-anchor="middle" font-family="monospace" font-size="14" fill="#81d4fa">Writing</text>

    <!-- Arrow -->
    <g transform="translate(200, 40)">
      <path d="M 0 0 L 60 0" stroke="#4fc3f7" stroke-width="2" marker-end="url(#arrowhead)" opacity="0.6"/>
      <polygon points="55,-5 70,0 55,5" fill="#4fc3f7" opacity="0.6"/>
    </g>
  </g>

  <!-- AI Processing box - center -->
  <g transform="translate(530, 730)">
    <rect x="0" y="0" width="200" height="120" rx="10" fill="#1e2a4a" stroke="#4fc3f7" stroke-width="2" opacity="0.5" />
    <text x="100" y="40" text-anchor="middle" font-family="Arial" font-size="20" fill="#e8eaf6" font-weight="bold">AI Engine</text>
    <text x="100" y="70" text-anchor="middle" font-family="monospace" font-size="14" fill="#81d4fa">Claude / GPT</text>
    <text x="100" y="95" text-anchor="middle" font-family="monospace" font-size="12" fill="#81d4fa" opacity="0.8">Automation</text>
  </g>

  <!-- Output box - right -->
  <g transform="translate(810, 750)">
    <rect x="0" y="0" width="180" height="80" rx="8" fill="none" stroke="#e8eaf6" stroke-width="2" opacity="0.7" />
    <text x="90" y="35" text-anchor="middle" font-family="Arial" font-size="18" fill="#e8eaf6" font-weight="bold">Auto</text>
    <text x="90" y="60" text-anchor="middle" font-family="monospace" font-size="14" fill="#81d4fa">Publish</text>
  </g>

  <!-- Right side feature boxes -->
  <g transform="translate(1100, 700)">
    <!-- Feature 1 -->
    <rect x="0" y="0" width="220" height="50" rx="6" fill="none" stroke="#81d4fa" stroke-width="1.5" opacity="0.5"/>
    <text x="110" y="32" text-anchor="middle" font-family="monospace" font-size="16" fill="#81d4fa">Auto Generation</text>

    <!-- Feature 2 -->
    <rect x="0" y="70" width="220" height="50" rx="6" fill="none" stroke="#81d4fa" stroke-width="1.5" opacity="0.5"/>
    <text x="110" y="102" text-anchor="middle" font-family="monospace" font-size="16" fill="#81d4fa">Smart Routing</text>

    <!-- Feature 3 -->
    <rect x="0" y="140" width="220" height="50" rx="6" fill="none" stroke="#81d4fa" stroke-width="1.5" opacity="0.5"/>
    <text x="110" y="172" text-anchor="middle" font-family="monospace" font-size="16" fill="#81d4fa">Zero Config</text>
  </g>

  <!-- Code snippet decoration -->
  <g transform="translate(1380, 700)" opacity="0.4">
    <rect x="0" y="0" width="300" height="200" rx="8" fill="#0a1628" stroke="#4fc3f7" stroke-width="1"/>
    <text x="20" y="30" font-family="monospace" font-size="14" fill="#81d4fa">// AI Auto Blog</text>
    <text x="20" y="60" font-family="monospace" font-size="12" fill="#e8eaf6">await ai.generate({</text>
    <text x="35" y="85" font-family="monospace" font-size="12" fill="#e8eaf6">topic: user.input,</text>
    <text x="35" y="110" font-family="monospace" font-size="12" fill="#e8eaf6">style: technical</text>
    <text x="20" y="135" font-family="monospace" font-size="12" fill="#e8eaf6">})</text>
    <text x="20" y="165" font-family="monospace" font-size="12" fill="#81d4fa">// Deploy to Vercel</text>
  </g>

  <!-- Bottom tags -->
  <g transform="translate(960, 980)">
    <rect x="-200" y="-22" width="400" height="44" rx="22" fill="#1e2a4a" stroke="#4fc3f7" stroke-width="1.5" opacity="0.4"/>
    <text x="0" y="8" text-anchor="middle" font-family="Arial" font-size="18" fill="#81d4fa">AI · Automation · Claude · Vercel</text>
  </g>

  <!-- Decorative chalk dust particles -->
  <g fill="#ffffff" opacity="0.15">
    <circle cx="150" cy="150" r="2"/>
    <circle cx="1750" cy="200" r="3"/>
    <circle cx="100" cy="950" r="2"/>
    <circle cx="1800" cy="900" r="2"/>
    <circle cx="400" cy="100" r="1.5"/>
    <circle cx="1600" cy="150" r="2"/>
    <circle cx="200" cy="850" r="2.5"/>
    <circle cx="1700" cy="800" r="1.5"/>
  </g>

  <!-- Watermark - Bottom Right -->
  <text x="1860" y="1055" font-family="Segoe UI, Arial, sans-serif" font-size="14" fill="#81d4fa" opacity="0.4" text-anchor="end">Jerret's Blog</text>
</svg>
